<mxfile host="app.diagrams.net" modified="2023-05-09T06:25:17.155Z" agent="Mozilla/5.0 (Macintosh; Intel Mac OS X 10_15_7) AppleWebKit/537.36 (KHTML, like Gecko) Chrome/112.0.0.0 Safari/537.36" version="21.2.6" etag="SIkYHAURAJ3Tk4-fsrM2" type="github">
  <diagram name="Page-1" id="GUfm8CWYn4SJzBA7yCWO">
    <mxGraphModel>
      <root>
        <mxCell id="0" />
        <mxCell id="1" parent="0" />
      </root>
    </mxGraphModel>
  </diagram>
</mxfile>
